<svg width="62" height="62" viewBox="0 0 62 62" fill="none" xmlns="http://www.w3.org/2000/svg">
<circle cx="31" cy="31" r="29.5" fill="white"/>
<circle cx="31" cy="31" r="29.5" fill="#7DDE82" fill-opacity="0.2"/>
<circle cx="31" cy="31" r="29.5" stroke="#87A7F9" stroke-width="3"/>
<path d="M50 31.5C50 34.807 48.0649 37.9076 44.7194 40.2237C41.3778 42.5372 36.7071 44 31.5 44C26.2929 44 21.6222 42.5372 18.2806 40.2237C14.9351 37.9076 13 34.807 13 31.5C13 28.193 14.9351 25.0924 18.2806 22.7763C21.6222 20.4628 26.2929 19 31.5 19C36.7071 19 41.3778 20.4628 44.7194 22.7763C48.0649 25.0924 50 28.193 50 31.5Z" fill="#7DDE82" stroke="black" stroke-width="2"/>
</svg>
