<svg width="62" height="62" viewBox="0 0 62 62" fill="none" xmlns="http://www.w3.org/2000/svg">
<circle cx="31" cy="31" r="29.5" fill="white"/>
<circle cx="31" cy="31" r="29.5" fill="#FF9191" fill-opacity="0.2"/>
<circle cx="31" cy="31" r="29.5" stroke="#87A7F9" stroke-width="3"/>
<path d="M17.2567 17.6048C21.5525 13.309 28.5173 13.309 32.8131 17.6048L44.7744 29.5661C49.0702 33.8619 49.0702 40.8267 44.7744 45.1225L44.4552 45.4417C40.1594 49.7375 33.1946 49.7375 28.8988 45.4417L16.9375 33.4804C12.6417 29.1846 12.6417 22.2198 16.9375 17.924L17.2567 17.6048Z" fill="#FFFAFA"/>
<path fill-rule="evenodd" clip-rule="evenodd" d="M43.3602 30.9803L31.3989 19.019C27.8842 15.5043 22.1857 15.5043 18.671 19.019L18.3517 19.3382C14.837 22.8529 14.837 28.5514 18.3517 32.0662L30.3131 44.0275C33.8278 47.5422 39.5263 47.5422 43.041 44.0275L43.3602 43.7082C46.8749 40.1935 46.8749 34.495 43.3602 30.9803ZM32.8131 17.6048C28.5173 13.309 21.5525 13.309 17.2567 17.6048L16.9375 17.924C12.6417 22.2198 12.6417 29.1846 16.9375 33.4804L28.8988 45.4417C33.1946 49.7375 40.1594 49.7375 44.4552 45.4417L44.7744 45.1225C49.0702 40.8267 49.0702 33.8619 44.7744 29.5661L32.8131 17.6048Z" fill="black"/>
<path d="M38.4355 21.5739L46.081 29.2193C50.3767 33.515 50.3767 40.4798 46.0809 44.7756L43.7757 47.0809C39.4799 51.3767 32.5151 51.3767 28.2193 47.0809L20.5739 39.4355L29.5047 30.5047L38.4355 21.5739Z" fill="#FF9191"/>
<path fill-rule="evenodd" clip-rule="evenodd" d="M44.6667 30.6335L38.4355 24.4023L23.4023 39.4355L29.6335 45.6667C33.1482 49.1814 38.8467 49.1814 42.3614 45.6667L44.6667 43.3614C48.1815 39.8467 48.1815 34.1482 44.6667 30.6335ZM38.4355 21.5739L20.5739 39.4355L28.2193 47.0809C32.5151 51.3767 39.4799 51.3767 43.7757 47.0809L46.0809 44.7756C50.3767 40.4798 50.3767 33.515 46.081 29.2193L38.4355 21.5739Z" fill="black"/>
</svg>
